<?xml version="1.0" encoding="UTF-8"?>
<svg xmlns="http://www.w3.org/2000/svg" xmlns:xlink="http://www.w3.org/1999/xlink" viewBox="0 0 500 500" width="500px" height="500px">
<g id="surface25840575">
<path style=" stroke:none;fill-rule:nonzero;fill:rgb(56.862748%,12.156863%,15.294118%);fill-opacity:1;" d="M 336.191406 40 L 163.808594 40 C 95.539062 40 40 95.539062 40 163.808594 L 40 336.191406 C 40 404.460938 95.539062 460 163.808594 460 L 336.191406 460 C 404.460938 460 460 404.460938 460 336.191406 L 460 163.808594 C 460 95.539062 404.460938 40 336.191406 40 Z M 300 303.859375 C 300 312.78125 292.78125 320 283.859375 320 L 150.050781 320 C 127.929688 320 110 302.070312 110 279.949219 L 110 186.128906 C 110 177.21875 117.21875 170 126.140625 170 L 259.960938 170 C 282.070312 170 300 187.929688 300 210.050781 Z M 390 301.960938 C 390 309.808594 381.359375 314.601562 374.699219 310.441406 L 324.699219 279.191406 C 321.78125 277.359375 320 274.160156 320 270.710938 L 320 219.300781 C 320 215.851562 321.78125 212.648438 324.699219 210.820312 L 374.699219 179.570312 C 381.359375 175.398438 390 180.191406 390 188.039062 Z M 390 301.960938 "/>
</g>
</svg>
